<svg xmlns="http://www.w3.org/2000/svg" viewBox="0 0 800 500" role="img" aria-label="Outlink — routing every channel to its own destination">
  <!-- Outlink project card (Brand & Logo Guidelines v1.0 — mark on Ink, radial Vermilion glow) -->
  <defs>
    <radialGradient id="outlink-glow" cx="100%" cy="0%" r="115%">
      <stop offset="0%" stop-color="#D4302E" stop-opacity="0.30"/>
      <stop offset="60%" stop-color="#D4302E" stop-opacity="0"/>
    </radialGradient>
  </defs>
  <rect width="800" height="500" fill="#261D1B"/>
  <rect width="800" height="500" fill="url(#outlink-glow)"/>

  <!-- mark: fixed 25° tilt, never set upright (Brand Guide misuse rules) -->
  <g transform="translate(345,60) scale(1.72)">
    <g transform="rotate(-25 32 32)" fill="#E5554C">
      <path d="M43.671 5.077 C44.033 5.064 44.408 5.09 44.763 5.155 C45.118 5.22 45.47 5.331 45.799 5.469 C46.128 5.607 46.444 5.783 46.737 5.984 C47.03 6.185 47.308 6.423 47.557 6.676 C47.806 6.929 48.032 7.21 48.23 7.504 C48.428 7.798 48.613 8.11 48.747 8.441 C48.882 8.772 48.972 9.129 49.037 9.488 C49.102 9.847 49.145 10.228 49.135 10.593 C49.125 10.958 49.058 11.331 48.98 11.68 C48.902 12.029 48.808 12.369 48.67 12.688 C48.532 13.007 48.346 13.308 48.151 13.595 C47.956 13.882 47.742 14.166 47.499 14.412 C47.256 14.659 46.975 14.874 46.691 15.074 C46.407 15.274 46.084 15.425 45.794 15.614 C45.504 15.803 45.201 15.982 44.949 16.208 C44.697 16.434 44.464 16.68 44.284 16.967 C44.104 17.254 43.981 17.594 43.867 17.928 C43.753 18.262 43.68 18.617 43.6 18.97 C43.52 19.324 43.462 19.69 43.389 20.049 C43.316 20.408 43.242 20.766 43.162 21.122 C43.082 21.478 42.996 21.831 42.912 22.185 C42.828 22.539 42.741 22.892 42.659 23.247 C42.577 23.602 42.501 23.96 42.42 24.315 C42.339 24.67 42.256 25.024 42.171 25.378 C42.087 25.732 42 26.085 41.913 26.438 C41.826 26.791 41.739 27.145 41.651 27.497 C41.563 27.85 41.476 28.202 41.384 28.553 C41.292 28.904 41.194 29.252 41.1 29.602 C41.006 29.952 40.913 30.302 40.819 30.652 C40.725 31.002 40.634 31.354 40.535 31.702 C40.436 32.05 40.331 32.395 40.225 32.74 C40.119 33.085 40.005 33.427 39.897 33.771 C39.79 34.115 39.685 34.46 39.58 34.806 C39.476 35.152 39.371 35.498 39.27 35.845 C39.169 36.192 39.07 36.54 38.975 36.889 C38.88 37.238 38.757 37.587 38.698 37.941 C38.639 38.295 38.597 38.669 38.62 39.012 C38.643 39.355 38.715 39.682 38.838 39.997 C38.961 40.312 39.145 40.631 39.358 40.903 C39.571 41.175 39.839 41.437 40.115 41.63 C40.391 41.823 40.697 41.984 41.014 42.059 C41.332 42.134 41.686 42.137 42.02 42.08 C42.354 42.024 42.693 41.869 43.017 41.72 C43.341 41.571 43.659 41.386 43.963 41.188 C44.267 40.991 44.558 40.762 44.839 40.535 C45.12 40.308 45.394 40.076 45.651 39.826 C45.908 39.576 46.156 39.313 46.381 39.037 C46.606 38.761 46.813 38.473 47.001 38.172 C47.189 37.871 47.372 37.56 47.508 37.23 C47.644 36.9 47.767 36.538 47.818 36.192 C47.869 35.846 47.885 35.478 47.817 35.154 C47.75 34.83 47.604 34.515 47.413 34.246 C47.222 33.977 46.93 33.769 46.668 33.539 C46.406 33.31 46.098 33.109 45.839 32.869 C45.58 32.629 45.316 32.385 45.112 32.099 C44.909 31.813 44.734 31.482 44.618 31.153 C44.502 30.824 44.436 30.475 44.414 30.126 C44.393 29.777 44.414 29.405 44.489 29.059 C44.564 28.713 44.7 28.361 44.867 28.049 C45.034 27.737 45.246 27.441 45.491 27.186 C45.736 26.931 46.03 26.699 46.336 26.517 C46.642 26.335 46.986 26.191 47.328 26.095 C47.67 25.999 48.035 25.944 48.389 25.944 C48.743 25.944 49.109 25.997 49.45 26.096 C49.791 26.195 50.134 26.352 50.434 26.539 C50.735 26.726 51.015 26.961 51.253 27.219 C51.491 27.477 51.706 27.773 51.863 28.087 C52.02 28.401 52.132 28.752 52.196 29.101 C52.26 29.45 52.275 29.825 52.247 30.183 C52.219 30.541 52.124 30.901 52.027 31.248 C51.93 31.595 51.778 31.922 51.666 32.265 C51.554 32.608 51.429 32.949 51.356 33.304 C51.283 33.659 51.249 34.022 51.227 34.395 C51.205 34.768 51.227 35.159 51.227 35.541 C51.227 35.923 51.244 36.308 51.227 36.686 C51.21 37.064 51.179 37.444 51.123 37.81 C51.067 38.176 50.99 38.536 50.891 38.881 C50.792 39.227 50.663 39.555 50.529 39.883 C50.396 40.212 50.247 40.536 50.09 40.852 C49.933 41.168 49.768 41.477 49.587 41.78 C49.406 42.083 49.211 42.385 49.006 42.67 C48.802 42.956 48.59 43.225 48.36 43.493 C48.13 43.761 47.875 44.024 47.625 44.28 C47.375 44.536 47.126 44.79 46.859 45.029 C46.592 45.268 46.301 45.492 46.021 45.712 C45.741 45.932 45.466 46.146 45.178 46.348 C44.89 46.55 44.582 46.722 44.295 46.924 C44.008 47.126 43.714 47.333 43.456 47.562 C43.198 47.791 42.948 48.024 42.745 48.298 C42.542 48.573 42.378 48.889 42.237 49.209 C42.096 49.53 42.008 49.879 41.901 50.221 C41.794 50.563 41.706 50.923 41.594 51.261 C41.483 51.599 41.37 51.926 41.232 52.248 C41.095 52.57 40.937 52.885 40.769 53.192 C40.601 53.499 40.419 53.793 40.226 54.089 C40.033 54.385 39.828 54.689 39.609 54.97 C39.39 55.251 39.157 55.52 38.911 55.772 C38.666 56.024 38.407 56.26 38.136 56.481 C37.865 56.702 37.575 56.906 37.286 57.099 C36.997 57.293 36.708 57.475 36.404 57.642 C36.1 57.809 35.784 57.96 35.464 58.101 C35.145 58.242 34.826 58.377 34.487 58.485 C34.148 58.593 33.787 58.675 33.428 58.747 C33.069 58.819 32.701 58.887 32.332 58.917 C31.963 58.947 31.585 58.936 31.212 58.926 C30.839 58.916 30.459 58.904 30.092 58.858 C29.725 58.812 29.368 58.729 29.011 58.651 C28.655 58.573 28.295 58.497 27.953 58.391 C27.611 58.285 27.283 58.154 26.957 58.014 C26.631 57.874 26.309 57.726 25.997 57.553 C25.685 57.38 25.382 57.188 25.083 56.976 C24.784 56.764 24.488 56.523 24.205 56.279 C23.922 56.035 23.643 55.782 23.386 55.512 C23.129 55.242 22.886 54.951 22.663 54.66 C22.44 54.369 22.234 54.072 22.045 53.764 C21.856 53.456 21.686 53.135 21.53 52.811 C21.374 52.487 21.229 52.157 21.107 51.819 C20.985 51.481 20.895 51.129 20.797 50.781 C20.699 50.433 20.632 50.067 20.52 49.729 C20.408 49.391 20.298 49.053 20.127 48.755 C19.956 48.457 19.737 48.189 19.495 47.941 C19.253 47.693 18.957 47.482 18.675 47.265 C18.393 47.048 18.089 46.853 17.805 46.64 C17.521 46.427 17.241 46.209 16.969 45.986 C16.697 45.763 16.429 45.535 16.171 45.301 C15.914 45.067 15.67 44.827 15.424 44.58 C15.178 44.333 14.93 44.085 14.696 43.82 C14.462 43.556 14.238 43.277 14.022 42.993 C13.806 42.709 13.595 42.415 13.401 42.114 C13.207 41.813 13.023 41.503 12.859 41.187 C12.696 40.871 12.551 40.549 12.42 40.217 C12.29 39.885 12.172 39.542 12.076 39.193 C11.98 38.844 11.9 38.484 11.844 38.122 C11.788 37.76 11.753 37.389 11.74 37.02 C11.727 36.651 11.732 36.274 11.766 35.906 C11.8 35.538 11.88 35.175 11.944 34.813 C12.008 34.451 12.097 34.093 12.151 33.732 C12.205 33.371 12.256 33.011 12.267 32.646 C12.278 32.281 12.244 31.912 12.218 31.544 C12.192 31.176 12.121 30.803 12.11 30.44 C12.099 30.077 12.093 29.711 12.153 29.365 C12.213 29.019 12.313 28.674 12.469 28.366 C12.625 28.058 12.84 27.756 13.087 27.516 C13.334 27.276 13.634 27.07 13.949 26.925 C14.264 26.78 14.631 26.678 14.979 26.647 C15.327 26.616 15.696 26.655 16.038 26.739 C16.38 26.824 16.734 26.968 17.033 27.154 C17.332 27.34 17.61 27.587 17.83 27.857 C18.05 28.127 18.235 28.449 18.352 28.777 C18.469 29.105 18.528 29.477 18.532 29.826 C18.536 30.175 18.481 30.542 18.377 30.871 C18.273 31.2 18.103 31.513 17.905 31.797 C17.707 32.081 17.447 32.334 17.187 32.575 C16.927 32.816 16.602 33.008 16.347 33.243 C16.092 33.479 15.842 33.717 15.657 33.988 C15.472 34.259 15.32 34.549 15.239 34.869 C15.158 35.189 15.152 35.562 15.171 35.91 C15.19 36.258 15.258 36.616 15.352 36.959 C15.446 37.302 15.582 37.647 15.737 37.966 C15.893 38.286 16.079 38.587 16.285 38.876 C16.491 39.165 16.726 39.44 16.972 39.698 C17.218 39.956 17.489 40.195 17.763 40.423 C18.037 40.651 18.323 40.868 18.617 41.067 C18.911 41.267 19.21 41.466 19.525 41.62 C19.84 41.774 20.179 41.928 20.509 41.99 C20.839 42.053 21.185 42.066 21.507 41.995 C21.83 41.924 22.159 41.766 22.444 41.566 C22.729 41.366 23 41.082 23.215 40.795 C23.431 40.508 23.62 40.174 23.737 39.844 C23.854 39.514 23.907 39.165 23.918 38.816 C23.929 38.467 23.866 38.104 23.804 37.749 C23.742 37.395 23.636 37.041 23.546 36.689 C23.456 36.338 23.356 35.99 23.262 35.64 C23.168 35.29 23.078 34.938 22.984 34.588 C22.89 34.238 22.79 33.891 22.7 33.539 C22.61 33.188 22.526 32.833 22.442 32.479 C22.359 32.125 22.278 31.769 22.199 31.413 C22.12 31.057 22.044 30.7 21.967 30.343 C21.89 29.986 21.813 29.629 21.735 29.272 C21.658 28.915 21.575 28.561 21.502 28.202 C21.429 27.843 21.361 27.482 21.296 27.12 C21.232 26.758 21.171 26.394 21.115 26.028 C21.059 25.662 21.007 25.295 20.96 24.926 C20.913 24.557 20.874 24.184 20.831 23.813 C20.788 23.442 20.745 23.07 20.702 22.699 C20.659 22.328 20.618 21.956 20.572 21.586 C20.527 21.216 20.487 20.844 20.429 20.479 C20.371 20.114 20.324 19.737 20.226 19.396 C20.128 19.055 20.011 18.725 19.839 18.435 C19.667 18.145 19.434 17.896 19.191 17.658 C18.949 17.42 18.652 17.229 18.384 17.006 C18.116 16.783 17.827 16.573 17.584 16.322 C17.342 16.071 17.116 15.798 16.929 15.502 C16.742 15.206 16.583 14.88 16.462 14.544 C16.341 14.208 16.251 13.843 16.204 13.484 C16.157 13.126 16.149 12.753 16.178 12.393 C16.207 12.033 16.271 11.663 16.376 11.325 C16.482 10.987 16.635 10.666 16.811 10.367 C16.987 10.068 17.197 9.789 17.431 9.532 C17.665 9.275 17.93 9.03 18.214 8.826 C18.498 8.622 18.81 8.448 19.137 8.31 C19.464 8.172 19.82 8.057 20.175 8 C20.53 7.943 20.904 7.948 21.265 7.97 C21.626 7.992 21.999 8.039 22.343 8.133 C22.687 8.227 23.019 8.369 23.33 8.531 C23.641 8.694 23.943 8.881 24.207 9.108 C24.471 9.335 24.707 9.609 24.913 9.892 C25.119 10.175 25.304 10.482 25.444 10.808 C25.584 11.134 25.684 11.491 25.754 11.847 C25.825 12.203 25.87 12.583 25.867 12.946 C25.864 13.309 25.815 13.677 25.737 14.022 C25.659 14.367 25.548 14.704 25.398 15.018 C25.248 15.332 25.036 15.618 24.839 15.908 C24.643 16.198 24.408 16.465 24.219 16.758 C24.03 17.051 23.823 17.35 23.706 17.667 C23.589 17.984 23.535 18.316 23.516 18.66 C23.497 19.004 23.534 19.378 23.594 19.731 C23.654 20.084 23.779 20.432 23.878 20.78 C23.977 21.128 24.085 21.472 24.188 21.818 C24.291 22.164 24.397 22.51 24.498 22.857 C24.599 23.204 24.693 23.554 24.792 23.902 C24.891 24.25 24.992 24.596 25.094 24.943 C25.196 25.29 25.297 25.637 25.404 25.982 C25.511 26.327 25.625 26.668 25.736 27.011 C25.847 27.354 25.948 27.701 26.068 28.04 C26.188 28.379 26.328 28.713 26.455 29.047 C26.582 29.381 26.706 29.711 26.831 30.043 C26.956 30.375 27.079 30.708 27.205 31.04 C27.331 31.372 27.462 31.699 27.587 32.033 C27.712 32.368 27.83 32.71 27.956 33.047 C28.082 33.384 28.203 33.725 28.343 34.053 C28.483 34.381 28.646 34.807 28.794 35.014 C28.942 35.221 29.098 35.317 29.231 35.293 C29.364 35.269 29.504 35.12 29.593 34.869 C29.682 34.618 29.716 34.151 29.766 33.785 C29.816 33.419 29.856 33.044 29.895 32.671 C29.934 32.298 29.96 31.92 29.999 31.547 C30.038 31.174 30.089 30.807 30.128 30.434 C30.167 30.061 30.192 29.683 30.231 29.31 C30.27 28.937 30.321 28.57 30.36 28.197 C30.399 27.824 30.433 27.45 30.463 27.073 C30.493 26.697 30.515 26.316 30.541 25.938 C30.567 25.56 30.592 25.181 30.618 24.803 C30.644 24.425 30.666 24.045 30.696 23.669 C30.726 23.293 30.783 22.919 30.799 22.545 C30.815 22.171 30.822 21.789 30.791 21.424 C30.76 21.059 30.701 20.701 30.611 20.353 C30.521 20.005 30.373 19.674 30.249 19.336 C30.125 18.998 29.958 18.668 29.869 18.327 C29.78 17.986 29.705 17.631 29.714 17.288 C29.723 16.945 29.786 16.581 29.92 16.271 C30.054 15.961 30.271 15.662 30.516 15.427 C30.761 15.192 31.074 14.992 31.393 14.864 C31.712 14.736 32.087 14.663 32.429 14.659 C32.771 14.655 33.132 14.719 33.443 14.842 C33.754 14.965 34.061 15.164 34.297 15.397 C34.534 15.63 34.73 15.931 34.862 16.239 C34.994 16.547 35.071 16.907 35.087 17.245 C35.103 17.583 35.039 17.928 34.959 18.265 C34.879 18.603 34.725 18.936 34.606 19.27 C34.487 19.604 34.339 19.925 34.244 20.272 C34.149 20.619 34.077 20.984 34.036 21.352 C33.996 21.721 33.998 22.104 34.001 22.483 C34.004 22.863 34.027 23.251 34.053 23.629 C34.079 24.007 34.126 24.377 34.156 24.753 C34.186 25.13 34.208 25.51 34.234 25.888 C34.26 26.266 34.29 26.642 34.311 27.022 C34.332 27.402 34.342 27.788 34.363 28.168 C34.385 28.548 34.411 28.925 34.44 29.302 C34.469 29.679 34.474 30.145 34.536 30.43 C34.599 30.715 34.702 30.935 34.815 31.011 C34.928 31.087 35.065 31.045 35.215 30.887 C35.365 30.729 35.557 30.363 35.714 30.061 C35.871 29.76 36.013 29.407 36.158 29.078 C36.303 28.749 36.445 28.419 36.584 28.088 C36.723 27.757 36.861 27.425 36.994 27.091 C37.127 26.757 37.253 26.421 37.382 26.085 C37.511 25.75 37.64 25.414 37.769 25.078 C37.898 24.743 38.028 24.408 38.156 24.072 C38.284 23.736 38.411 23.4 38.539 23.064 C38.667 22.728 38.798 22.393 38.923 22.056 C39.048 21.719 39.169 21.38 39.288 21.04 C39.407 20.7 39.527 20.362 39.638 20.019 C39.749 19.676 39.848 19.328 39.952 18.982 C40.056 18.636 40.169 18.294 40.262 17.943 C40.355 17.593 40.465 17.23 40.509 16.879 C40.553 16.528 40.578 16.173 40.524 15.835 C40.471 15.497 40.343 15.168 40.188 14.85 C40.033 14.532 39.788 14.238 39.594 13.929 C39.4 13.62 39.185 13.321 39.025 12.998 C38.866 12.675 38.732 12.342 38.637 11.992 C38.542 11.642 38.484 11.266 38.457 10.9 C38.43 10.534 38.431 10.156 38.476 9.795 C38.521 9.434 38.608 9.07 38.726 8.732 C38.844 8.394 39 8.077 39.185 7.77 C39.37 7.463 39.593 7.157 39.835 6.888 C40.077 6.619 40.35 6.374 40.639 6.156 C40.928 5.938 41.243 5.737 41.568 5.583 C41.893 5.429 42.239 5.316 42.589 5.232 C42.939 5.148 43.309 5.09 43.671 5.077 Z"/>
    </g>
  </g>

  <text x="400" y="254" text-anchor="middle" font-family="'Public Sans',Arial,Helvetica,sans-serif" font-weight="800" letter-spacing="4" font-size="66" fill="#FDF9F8">OUTLINK</text>
  <text x="400" y="300" text-anchor="middle" font-family="'IBM Plex Mono',Consolas,Menlo,monospace" font-size="19" letter-spacing="7" fill="#F49286">CHANNEL ROUTING</text>
</svg>
